<svg xmlns="http://www.w3.org/2000/svg" width="315" height="219" viewBox="0 0 315 219"><path fill="#0AF77D" fill-opacity=".1" d="M258.1 176.7c5.4-7 8-16.8 9.7-25.8 9.6-50.5-13-95-58.6-117-44.4-21.3-102.6-8.7-133.4 28.9C42.7 103 53.4 181.4 95.5 206.3c39.4 23.3 135.6 6.3 162.6-29.6z"/><path fill="#127CCB" d="M73.8 159.1c.1 1.3.5 2.2.7 3.5.2.6.5.8 1.2.7l6.7-.9 9.2-1 .4-.1a13 13 0 0 1 0-9.3c2.8-4.8 11.5-4.8 12.8-1.1 1 2.6 1 5.4.8 8.1v.4h.1l4.7-.7c3-.5 6-1 9-1.3a37 37 0 0 1 3.4-.3c.4 0 3.2-.4 3-1.7l-.1-1.6-1.2-7.8-2.2-14.4a1815 1815 0 0 1-4.2-48l-.3-7.2-1.4-16c-.2-2.4-.2-2.4-2.4-2.1l-11.1 1.3-5.8 1-.3 5.5v2.4a5.2 5.2 0 0 1-3.5 4.5c-2.1 1-4.3.8-6-.7-3.3-2.8-4.6-5.2-4.5-9.4l-2.8.5c-2.4.2-11.6 1.1-13.9 1h-1c-.7.1-1 .5-1 1.2l.5 3.9 1.2 10.8L68 102l1.7 18 1.4 15.5c.4 4.1.7 8.3 1.2 12.4.4 3.8 1 7.5 1.5 11.2z"/><path fill="#0A3B5F" d="M12.3 100.6C19 92 26.8 81.3 33.5 72.8c2-2.6 9.3-12.8 11.2-15 .6-.7 1.4-1.6 2.4-.3A378.6 378.6 0 0 0 53 70.8l4.4 9.6"/><path fill="#5FCE8C" d="M107.4 149.2c3-1.1 3.6-2.3 2.5-5.3L81.1 72.3c-1-2.2-1.5-2.4-3.7-1.5L12.9 100c-1 .5-1 1.9-.6 2.6l5 11.4 3.4 7.8 5 11.8 3.2 7.6L37 161l3.9 10.5c.9 2.5 2 3.1 4.3 2.5l62.1-24.7zm-81.5-15.7 3.2 7.6-3.2-7.6-2.2-5.2 2.2 5.2z"/><path fill="#fff" d="M70.3 142c-2.3 1-5.7 2.1-9.3 2-1 0-2.2 0-3.5-.2a15 15 0 0 1-11.6-6.8 19 19 0 0 1-2.8-8.6 27 27 0 0 1 2-14c0-.3 2-5.4 9.3-8.4 6.3-2.7 19.1-.5 25 8.7 3 4.6 3.6 9.3 2 14.2a33.4 33.4 0 0 1-4.5 9 20 20 0 0 1-6.6 4.2zm-15-34.1c-6.6 2.7-8.3 7.1-8.3 7.2-1.8 4.6-2.4 9-1.9 13.1.4 3.2 1.2 5.6 2.5 7.7 2.1 3.3 5.4 5.3 10.1 5.9 1.2.1 2.3.2 3.2 0a20 20 0 0 0 8.6-1.6c3.2-1.4 5.4-3 5.7-3.4a31.4 31.4 0 0 0 4.3-8.6 14 14 0 0 0-1.8-12.3c-5.4-8.4-16.9-10.4-22.5-8z"/><path fill="#fff" d="M69.9 142.2a5.2 5.2 0 0 1-4.6-.3 7 7 0 0 1-1.9-1c-2.7-1.7-5-4.5-6.9-8.5a50.4 50.4 0 0 1-3-8 51.7 51.7 0 0 1-2.2-12.3c-.1-1.7.4-5 3-6.1 3.1-1.3 9.8 3.9 14.5 13.3a31.6 31.6 0 0 1 3.8 20c-.1 1-1.2 2.3-2.7 3zM55.2 108c-1.7.7-2 3.2-1.9 4.1.2 3.9.9 7.7 2 11.7a47.2 47.2 0 0 0 3 7.8c1.9 3.6 3.9 6.2 6.3 7.8l1.3.7h.2c1 .6 2 .7 3 .3a3 3 0 0 0 1.5-1.3 29.8 29.8 0 0 0-3.6-18.8c-4.7-9.3-10.5-12.9-11.8-12.3z"/><path fill="#fff" d="M64 132.6a33.6 33.6 0 0 1-10 2.6c-2.5.2-5 .2-7.3-.2-.8 0-2-1-2.7-2.4a5.2 5.2 0 0 1 .2-5 7 7 0 0 1 1-1.8c1.8-2.7 4.6-5 8.6-7 2.5-1.2 5-2.2 8.2-3.1a52.6 52.6 0 0 1 12.4-2.2c1.7-.1 5 .4 6.2 3.1 1.2 3-4 9.8-13.6 14.6l-3 1.4zm-7-13-2.3 1A19.8 19.8 0 0 0 47 127c-.4.5-.6 1-.7 1.3l-.1.3c-.6 1-.7 1.9-.4 2.8a3 3 0 0 0 1.4 1.6 30 30 0 0 0 19-3.7c9.4-4.7 13.1-10.5 12.6-11.9-.7-1.7-3.3-1.9-4.2-1.9-4 .3-7.8 1-11.9 2.2a54.7 54.7 0 0 0-5.6 2z"/><path fill="#50AD75" d="M181.3 67.8a48.7 48.7 0 0 1 2.2-10.5c2.3.2 4.6 3 4.2 6-.6 3.5-3.3 5.4-6.5 4.5zm.8-13.6-2-1c-.9-.4-1.7-.9-1.7-2a2.7 2.7 0 0 1 1.8-2.5c.7-.3 1.6-.3 2.4-.3.1 0 .4.3.4.5a10.6 10.6 0 0 1-1 5.3z"/><path fill="#50AD75" d="M185 36.7c6.4.3 11.6 2.8 16 7.2a13.5 13.5 0 0 1 3.7 12.6 30.1 30.1 0 0 1-4.9 12 21.3 21.3 0 0 1-15 9c-6 .8-11.6 0-16.6-3.7a16.6 16.6 0 0 1-6-9 17.7 17.7 0 0 1 .7-12.4c1.1-2.7 2-5.5 4.1-7.6 3.6-3.6 7.5-6.5 12.6-7.6 1.9-.4 3.7-1 5.4-.5zm0 11.6 3.2.7c.5.1 1 .5 1.4.4.5 0 1.2-.2 1.4-.6.3-.6-.3-1-.8-1.2l-3.6-1c-1-.2-1.4-.6-1.2-1.6v-1c0-.4-.2-.8-.5-.8l-.7.4c-.2.3-.2.7-.3 1.1-.3 1.6-.3 1.6-1.8 1.9h-.7c-2.2.6-3.8 1.8-4.5 4.1-.4 1.4-.1 2.2 1 3a28 28 0 0 0 2.8 1.8c.9.5 1.2 1 1 2-.4 1.1-.5 2.3-.8 3.4l-1.5 6.6a10.2 10.2 0 0 1-5.5-3.1c-1.4 1.3-1.4 1.9.1 2.8l2.8 1.5c1.1.5 2.2 1 1.8 2.6 0 .2.3.8.6.9.3 0 1-.2 1-.5.3-1.3 1.2-1.5 2.3-1.6.5 0 1-.2 1.5-.4 5.5-1.4 7.5-8.8 3-12.6-.5-.5-1-1.1-1.7-1.5-1.1-.7-1.6-1.4-1.2-2.7.4-1.5.6-3 .9-4.6zm-30.8 45.6a29.9 29.9 0 0 1-4-5.2c.9-1 3.1-1 4.3.3 1.5 1.6 1.3 3.7-.3 4.9zm-6.1-5.7-1.3.6c-.5.2-1 .5-1.5 0a1.7 1.7 0 0 1-.5-1.8c.1-.5.5-.9.7-1.3h.4a6.5 6.5 0 0 1 2.2 2.5z"/><path fill="#50AD75" d="M141 80a14.2 14.2 0 0 1 9.6-4.8 8 8 0 0 1 7.4 3 18.3 18.3 0 0 1 3.8 7c1 3.8.3 7.4-1.7 10.7-2 3.2-4.5 5.5-8.2 6.6a10 10 0 0 1-6.5-.6 10.6 10.6 0 0 1-5.7-5.2c-.8-1.5-1.7-3-2-4.9-.2-3 0-6.1 1.4-9 .6-1 1-2.1 1.9-2.7zm5.4 4.5 1.7-1.3c.2-.1.5-.2.7-.5.1-.2.3-.6.2-.9-.1-.4-.5-.2-.8 0l-2 1.3c-.4.3-.7.4-1.1 0l-.5-.5h-.6v.5l.3.6c.6.7.7.7.2 1.6l-.2.3c-.6 1.3-.7 2.5.2 3.7.4.7 1 1 1.7.7.7-.1 1.4-.4 2-.6.5-.3 1-.2 1.3.3l1.3 1.7 2.5 3.3a6.3 6.3 0 0 1-3.6 1.4c0 1.1.4 1.4 1.4 1l1.8-.8c.7-.3 1.3-.7 1.9.2h.7c.1 0 .2-.5.1-.6-.4-.7-.2-1.2.2-1.7l.4-1c1.4-3.1-1.3-7-4.8-6.3-.5 0-1 .1-1.4.3-.7.3-1.2.2-1.7-.5l-1.9-2.2zm10.1-62a34.3 34.3 0 0 1-2.9-7c1.5-.8 4 0 4.8 1.8 1 2.3.3 4.4-2 5.2zm-5-8.2-1.5.3c-.7 0-1.3.1-1.7-.6a2 2 0 0 1 0-2c.3-.6.9-.9 1.3-1.3l.5.1a7.5 7.5 0 0 1 1.5 3.5z"/><path fill="#50AD75" d="M146.4 3A16.3 16.3 0 0 1 158.6.9c3.4.7 5.8 2.6 7.1 5.8a20.9 20.9 0 0 1 2 8.9c-.2 4.5-2.1 8.2-5.4 11.2a15.9 15.9 0 0 1-11.1 4.5 11 11 0 0 1-7-2.7 12.2 12.2 0 0 1-4.6-7.5c-.4-2-1-4-.5-6 .7-3.6 1.9-6.8 4.4-9.5.9-1 1.8-2 3-2.4zm4.5 6.7 2.2-.9c.4 0 .8 0 1-.3.3-.2.6-.6.6-.9 0-.5-.6-.4-1-.3l-2.5.8c-.6.2-1 .2-1.3-.5 0-.2-.2-.4-.4-.6-.1-.1-.4-.3-.6-.2l-.2.5.2.8c.5 1 .5 1-.3 1.8l-.4.3c-1 1.2-1.5 2.6-1 4.2.3 1 .8 1.3 1.7 1.3h2.4c.7-.1 1.1 0 1.3.7l1 2.3 1.6 4.4c-1.5.6-3 .7-4.4.4-.3 1.3 0 1.6 1.2 1.5.7 0 1.5 0 2.2-.2.9-.2 1.7-.4 2 .8.1.1.6.3.8.2.2 0 .4-.5.4-.6-.3-.9.1-1.4.7-1.9l.7-.8c2.7-3 1-8-3.2-8.6-.5 0-1-.1-1.6 0-.9 0-1.4-.3-1.7-1.2l-1.4-3z"/><path fill="#0A3B5F" d="m279 123.2.5.3-4.7 26.8-3.8 22.2-6.7 38-23.3-2-59.4-4.6-4.2-.8 1.8-8.9 7.7-35.8 6.5-30.6 2.4-12.9.1.1 23.6 1.9 33 2.8 26.5 3.5z"/><path fill="#F19020" d="m279 123.2-26.6-3.5c0-4.5.5-9 0-13.4-.5-4.7-3.8-7.5-8.5-8.3-5.7-1-10.6 1-15.2 4-5.4 3.4-9.3 8-9.2 14.8l-23.6-1.8c8.7-21.5 20.3-37.2 48-37.3 9 0 17 2 23.2 9 5.8 6.4 10 13.6 10.7 22.5.3 4.7.8 9.4 1.2 14z"/><path fill="#0A3B5F" d="M158 201.7c-5.3-.4-10.6-.6-15.8-1.2-3.7-.5-5.2-3-4.3-6.9 1.3-5.9 2.9-11.7 4.2-17.6a1463.7 1463.7 0 0 0 6-27.4c2.4-11.1 4.5-22.3 6.8-33.5.4-2.4 1.6-3.9 4.3-3.6l18.6 2-3.2 14.4-8.3 36.5-8.3 37.3z"/><path fill="#FBAF17" d="m158 201.7 8.3-37.3 8.3-36.5 3.2-14.5 18 1.5-2.4 12.9-6.5 30.6-7.7 35.8-1.8 8.9-19.4-1.4z"/><path fill="#0A3B5F" d="M296.6 124.3c2.1 0 4.3-.1 6.4 0 3.6.2 7.1.6 11.5 1l-2.7 12.8c-2.2 10.1-4.8 20.1-6.6 30.3-2.1 11.4-3.7 23-5.4 34.4-1.2 7-6 11-13.2 10.4l-6.4-.8 6.2-32.8 4.9-26.5 5.3-28.7z"/><path fill="#FBAF17" d="m296.6 124.3-5.3 28.8-4.9 26.5-6.1 32.8-16-1.8 6.7-38 3.8-22.3 4.7-26.8 6.5.4 10.6.4z"/><path fill="#0A3B5F" d="m72.8 36.8-6 .2c-.5 0-1 .2-1.3.1-.4-.1-.9-.4-1-.7 0-.3.4-.9.7-1a16.2 16.2 0 0 1 3-.5c1.3-.2 2.7-.2 4.4-.3l-2.3-5.4c-.3-.8-1-1.6-.1-2.3.6-.5 1.2 0 1.8 1.4l2.2 5.5c2.3-1.5 2.2-4.5 4.1-6.1 1.4 1.2 1.4 1.5.7 2.9l-2.3 4 4 .4H83c1.2.2 1.7.8 1.4 2.2l-8.5-.3 1 3.1c.3 1.2.7 2.3.9 3.5 0 .7 0 1.5-1 1.8l-2-6.3c-2.4 2-2.9 5.5-6 6.5-1.1-1-.5-1.8.3-2.6a13.7 13.7 0 0 0 3.2-5l.4-1z"/><path fill="#127CCB" d="m112.7 180.7-4.2-1.5c-.3-.1-.7-.1-1-.3-.1-.2-.4-.6-.3-.8 0-.2.4-.4.6-.4.8 0 1.5.2 2.2.4 1 .2 2 .6 3.2 1v-4.4c-.1-.6-.4-1.4.5-1.6.6-.2.9.3.9 1.5v4.4c2-.4 2.8-2.5 4.5-3.1.6 1.2.6 1.4-.3 2.2l-2.7 2.2 2.6 1.3 1.8.8c.7.3 1 1 .3 1.8l-5.8-2.6-.2 2.5c0 .9-.2 1.8-.4 2.7 0 .5-.3 1-1.2 1l.4-5c-2.2.7-3.5 3-6 2.9-.4-1 .2-1.4 1-1.8 1.4-.6 2.6-1.4 3.6-2.5l.5-.7z"/></svg>